{"accessors" : [{"bufferView" : 0, "byteOffset" : 0, "componentType" : 5123, "count" : 4554, "type" : "SCALAR", "max" : [3883], "min" : [0]}, {"bufferView" : 1, "byteOffset" : 0, "componentType" : 5126, "count" : 3884, "type" : "VEC3", "max" : [0.0031737328972667456, 0.0007720134453848004, 0.0019393457332625985], "min" : [-0.0038042557425796986, -0.0007154130726121366, -0.002354200230911374], "name" : "POSITION"}, {"bufferView" : 1, "byteOffset" : 12, "componentType" : 5126, "count" : 3884, "type" : "VEC3", "max" : [0.9957869052886963, 0.9999110102653503, 0.9994099140167236], "min" : [-0.9839978814125061, -0.9999668002128601, -0.9996306300163269], "name" : "NORMAL"}, {"bufferView" : 1, "byteOffset" : 24, "componentType" : 5126, "count" : 3884, "type" : "VEC2", "max" : [0.9709155559539795, 0.9956368207931519], "min" : [0.004363298416137695, 0.04382312297821045], "name" : "TEXCOORD_0"}], "asset" : {"generator" : "Aspose.3D 22.12", "version" : "2.0"}, "buffers" : [{"uri" : "data:application/octet-stream;base64,", "byteLength" : 154844}], "bufferViews" : [{"buffer" : 0, "byteOffset" : 0, "byteLength" : 9108, "target" : 34963}, {"buffer" : 0, "byteOffset" : 9112, "byteLength" : 145728, "byteStride" : 32, "target" : 34962}], "materials" : [{"name" : "DefaultMaterial", "pbrMetallicRoughness" : {"baseColorFactor" : [0.5, 0.5, 0.5, 1], "metallicFactor" : 0.200000002980232, "roughnessFactor" : 0.800000011920929}, "emissiveFactor" : [0, 0, 0], "alphaMode" : "OPAQUE", "doubleSided" : false}], "meshes" : [{"primitives" : [{"attributes" : {"POSITION" : 1, "NORMAL" : 2, "TEXCOORD_0" : 3}, "indices" : 0, "material" : 0, "mode" : 4}]}], "nodes" : [{"matrix" : [379.9999999999897, 6.705522554443677E-05, 5.760042406130015E-05, 0, -6.705524279173545E-05, 380.0000610351477, 4.272967182333428E-05, 0, -5.760042114703017E-05, -4.2729678555975816E-05, 380.00003051757125, 0, -0.0054295901209116, 0.0539305284619331, -0.00886713806539774, 1], "mesh" : 0, "name" : "Hand"}, {"children" : [0], "name" : "RootNode"}], "scene" : 0, "scenes" : [{"nodes" : [1]}]}